<?xml version="1.0" standalone="no"?>
<!DOCTYPE svg PUBLIC "-//W3C//DTD SVG 20010904//EN"
 "http://www.w3.org/TR/2001/REC-SVG-20010904/DTD/svg10.dtd">
<svg version="1.0" xmlns="http://www.w3.org/2000/svg"
 width="650.000000pt" height="229.000000pt" viewBox="0 0 650.000000 229.000000"
 preserveAspectRatio="xMidYMid meet">

<g transform="translate(0.000000,229.000000) scale(0.100000,-0.100000)"
fill="#000000" stroke="none">
<path d="M190 2028 c-50 -14 -97 -53 -123 -101 -20 -38 -22 -55 -22 -202 0
-148 2 -163 23 -203 15 -28 40 -53 70 -72 77 -47 104 -72 123 -114 44 -98 5
-207 -93 -257 -45 -23 -82 -59 -105 -102 -14 -25 -18 -63 -21 -168 -6 -199 18
-261 117 -312 l55 -27 1035 0 c692 0 1049 4 1074 11 49 13 105 63 128 114 15
33 19 66 19 190 0 203 -11 225 -142 305 -59 36 -92 95 -92 165 0 70 33 129 92
165 131 80 142 102 142 305 0 125 -4 157 -19 191 -22 48 -82 101 -131 114 -48
13 -2083 12 -2130 -2z m682 -110 c-5 -53 5 -78 32 -78 29 0 46 18 46 50 0 14
3 35 6 48 l6 22 667 0 c650 0 667 -1 699 -20 51 -31 62 -70 62 -217 0 -144
-12 -179 -73 -211 -17 -9 -55 -40 -84 -69 -111 -110 -111 -270 1 -378 28 -27
66 -58 83 -67 61 -32 73 -67 73 -211 0 -146 -12 -187 -64 -215 -28 -16 -94
-17 -791 -17 l-760 0 -3 22 c-7 51 -76 53 -84 1 l-3 -23 -235 0 c-209 0 -239
2 -263 18 -54 35 -59 53 -58 213 1 81 6 154 10 163 5 9 42 39 82 66 54 37 80
63 101 102 73 130 33 296 -88 370 -26 15 -60 40 -75 55 l-29 26 0 155 c0 153
0 156 26 186 14 17 40 35 57 40 18 5 174 9 347 8 l315 -2 -3 -37z"/>
<path d="M1668 1731 c-168 -42 -310 -80 -315 -84 -4 -5 -9 -140 -11 -301 l-3
-293 -39 19 c-125 62 -305 12 -361 -100 -44 -89 -5 -180 103 -235 138 -72 342
-7 377 120 6 21 11 134 11 258 l0 220 243 59 c133 32 248 61 255 64 9 3 12
-21 12 -102 0 -58 -1 -106 -3 -106 -2 0 -23 10 -48 22 -68 33 -178 30 -253 -6
-138 -68 -162 -208 -53 -301 100 -86 272 -85 369 3 68 62 68 60 68 456 0 309
-2 357 -16 370 -8 9 -18 16 -22 15 -4 -1 -145 -35 -314 -78z"/>
<path d="M862 1788 c-5 -7 -13 -35 -17 -63 -3 -27 -8 -60 -11 -72 -4 -23 19
-53 41 -53 28 0 43 31 50 100 5 50 4 75 -5 85 -15 18 -44 19 -58 3z"/>
<path d="M826 1551 c-10 -15 -26 -149 -20 -165 13 -33 67 -25 78 11 10 39 17
123 11 142 -4 15 -15 21 -35 21 -16 0 -31 -4 -34 -9z"/>
<path d="M796 1308 c-8 -13 -16 -54 -18 -92 -2 -56 0 -70 15 -80 22 -14 49 2
57 35 19 68 20 127 5 143 -23 22 -42 20 -59 -6z"/>
<path d="M761 1072 c-5 -10 -12 -49 -16 -88 -6 -58 -4 -72 9 -83 13 -11 22
-11 40 -3 20 9 25 22 34 83 7 48 8 79 1 91 -12 23 -55 23 -68 0z"/>
<path d="M732 837 c-7 -8 -15 -48 -18 -89 -6 -72 -6 -76 16 -88 19 -10 25 -9
42 7 15 16 20 36 21 99 2 78 2 79 -24 82 -14 2 -31 -3 -37 -11z"/>
<path d="M5792 1043 c3 -362 3 -369 26 -415 30 -60 75 -88 152 -95 l60 -6 0
47 c0 45 -1 46 -32 46 -40 1 -64 17 -78 54 -6 17 -10 161 -10 382 l0 354 -60
0 -61 0 3 -367z"/>
<path d="M6192 1043 c4 -402 5 -408 65 -465 33 -31 94 -51 143 -46 33 3 35 5
38 45 l3 42 -42 3 c-32 2 -47 9 -63 31 -20 27 -21 41 -24 393 l-3 364 -60 0
-60 0 3 -367z"/>
<path d="M3204 1341 c-191 -55 -295 -212 -281 -425 11 -177 100 -303 253 -358
63 -22 233 -36 298 -24 36 7 36 7 36 59 l0 52 -127 0 c-120 0 -132 2 -185 28
-107 52 -152 134 -152 278 -1 87 2 101 29 155 22 43 43 68 79 91 66 45 114 56
234 55 l102 0 0 54 0 54 -112 -1 c-76 0 -133 -6 -174 -18z"/>
<path d="M4260 952 c0 -225 2 -411 4 -413 3 -3 29 -2 58 1 l53 5 3 193 2 192
190 0 190 0 0 -195 c0 -206 -2 -197 45 -197 8 0 29 0 45 1 l30 1 0 410 0 410
-60 0 -60 0 0 -165 0 -165 -190 0 c-174 0 -190 1 -191 18 -1 9 -1 74 1 144 2
168 2 168 -66 168 l-54 0 0 -408z"/>
<path d="M5285 1136 c-110 -35 -189 -106 -218 -197 -37 -113 -11 -267 55 -337
41 -42 73 -59 135 -72 58 -13 125 4 178 44 l34 26 3 -32 c3 -32 4 -33 53 -33
l50 0 3 299 c2 233 -1 301 -10 308 -20 12 -239 8 -283 -6z m175 -265 l0 -189
-30 -26 c-93 -78 -220 -37 -249 80 -25 100 -8 201 43 259 38 43 92 63 174 64
l62 1 0 -189z"/>
<path d="M3670 885 l0 -45 200 0 200 0 0 45 0 45 -200 0 -200 0 0 -45z"/>
</g>
</svg>
